<?xml version="1.0" encoding="UTF-8" standalone="no"?>
<svg
   xmlns:dc="http://purl.org/dc/elements/1.1/"
   xmlns:cc="http://creativecommons.org/ns#"
   xmlns:rdf="http://www.w3.org/1999/02/22-rdf-syntax-ns#"
   xmlns:svg="http://www.w3.org/2000/svg"
   xmlns="http://www.w3.org/2000/svg"
   xmlns:sodipodi="http://sodipodi.sourceforge.net/DTD/sodipodi-0.dtd"
   xmlns:inkscape="http://www.inkscape.org/namespaces/inkscape"
   width="2431.67pt"
   height="1026.54pt"
   viewBox="0 0 2431.67 1026.54"
   version="1.2"
   id="svg4140"
   inkscape:version="0.91+devel+osxmenu r12922"
   sodipodi:docname="SittingFrogOnRivetText.svg">
  <metadata
     id="metadata4207">
    <rdf:RDF>
      <cc:Work
         rdf:about="">
        <dc:format>image/svg+xml</dc:format>
        <dc:type
           rdf:resource="http://purl.org/dc/dcmitype/StillImage" />
        <dc:title></dc:title>
      </cc:Work>
    </rdf:RDF>
  </metadata>
  <sodipodi:namedview
     pagecolor="#ffffff"
     bordercolor="#666666"
     borderopacity="1"
     objecttolerance="10"
     gridtolerance="10"
     guidetolerance="10"
     inkscape:pageopacity="0"
     inkscape:pageshadow="2"
     inkscape:window-width="1683"
     inkscape:window-height="864"
     id="namedview4205"
     showgrid="false"
     inkscape:zoom="0.28221229"
     inkscape:cx="1634.9974"
     inkscape:cy="680.2053"
     inkscape:window-x="0"
     inkscape:window-y="23"
     inkscape:window-maximized="0"
     inkscape:current-layer="svg4140" />
  <defs
     id="defs4142">
    <clipPath
       id="clip1">
      <path
         d="M 896 422 L 1445 422 L 1445 1026.539062 L 896 1026.539062 Z M 896 422 "
         id="path4145" />
    </clipPath>
    <clipPath
       id="clip2">
      <path
         d="M 2161 168 L 2431.671875 168 L 2431.671875 1002 L 2161 1002 Z M 2161 168 "
         id="path4148" />
    </clipPath>
  </defs>
  <g
     id="surface1625">
    <path
       style=" stroke:none;fill-rule:nonzero;fill:rgb(100%,100%,100%);fill-opacity:1;"
       d="M 1920.457031 981.449219 C 1914.625 981.449219 1908.398438 979.863281 1901.421875 976.605469 C 1889.03125 970.816406 1883.222656 959.835938 1884.164062 943.96875 C 1884.890625 931.472656 1888.78125 919.484375 1892.539062 907.890625 C 1895.132812 899.902344 1897.8125 891.640625 1899.464844 883.226562 C 1900.324219 878.894531 1901.160156 874.5625 1902.214844 869.113281 L 1903.726562 861.3125 L 1900.527344 863.558594 C 1897.6875 865.550781 1895.101562 867.421875 1892.664062 869.183594 C 1887.796875 872.695312 1883.59375 875.730469 1879.183594 878.476562 C 1858.710938 891.238281 1844.714844 896.441406 1830.882812 896.441406 C 1815.179688 896.445312 1799.351562 889.777344 1774.425781 872.664062 C 1771.695312 870.78125 1769.003906 868.710938 1766.152344 866.519531 C 1764.679688 865.386719 1763.144531 864.207031 1761.5 862.972656 L 1758.433594 860.667969 L 1758.992188 864.460938 C 1761.222656 879.621094 1765.539062 893.609375 1769.707031 907.140625 C 1770.953125 911.175781 1772.195312 915.203125 1773.375 919.242188 C 1776.171875 928.796875 1778.699219 939.148438 1778.25 950.152344 C 1777.640625 964.589844 1770.277344 973.878906 1755.734375 978.550781 C 1750.363281 980.28125 1745.363281 981.15625 1740.863281 981.15625 C 1731.347656 981.15625 1723.566406 977.320312 1717.078125 969.429688 C 1699.8125 948.457031 1689.234375 923.527344 1679.003906 899.417969 L 1676.699219 893.992188 C 1640.921875 809.863281 1603.925781 722.863281 1559.109375 640.9375 C 1550.046875 624.367188 1545.925781 606.191406 1541.945312 588.613281 L 1541.074219 584.777344 C 1552.742188 580.976562 1562.210938 573.546875 1569.890625 562.152344 C 1571.433594 572.054688 1572.988281 580.589844 1575.140625 588.921875 C 1579.085938 604.253906 1585.894531 620.605469 1606.496094 625.605469 C 1609.714844 626.386719 1612.75 626.78125 1615.515625 626.78125 C 1624.480469 626.78125 1630.761719 622.710938 1633.6875 615.015625 C 1636.726562 606.96875 1639.214844 598.605469 1641.621094 590.515625 C 1642.574219 587.3125 1643.527344 584.113281 1644.515625 580.921875 C 1659 577.011719 1668.628906 568.15625 1673.179688 554.570312 C 1676.246094 567.261719 1682.15625 572.128906 1695.382812 573.417969 C 1696.5 573.699219 1697.617188 573.847656 1698.707031 573.847656 C 1702.949219 573.847656 1706.804688 571.761719 1710.496094 567.476562 C 1723.410156 552.460938 1726.863281 538.132812 1720.761719 524.894531 C 1716.492188 515.644531 1713.382812 505.820312 1710.375 496.316406 C 1708.554688 490.570312 1706.695312 484.691406 1704.554688 478.847656 C 1705.308594 479.863281 1706.070312 480.925781 1706.847656 482.054688 C 1709.933594 486.496094 1713.191406 490.058594 1716.8125 492.957031 C 1721.527344 496.722656 1728.175781 498.882812 1735.058594 498.882812 C 1742.140625 498.882812 1748.710938 496.621094 1753.078125 492.675781 C 1762.320312 484.339844 1762.574219 471.109375 1753.707031 459.75 C 1750.511719 455.652344 1745.375 449.957031 1737.695312 447.847656 C 1729.921875 445.691406 1725.472656 440.445312 1721.191406 433.230469 C 1716.324219 425.019531 1712.855469 416.039062 1709.5 407.355469 C 1707.863281 403.117188 1706.167969 398.734375 1704.328125 394.476562 L 1704.257812 394.3125 L 1704.15625 394.171875 C 1703.828125 393.722656 1703.5 393.289062 1703.136719 392.878906 C 1702.785156 392.4375 1702.390625 392.003906 1702.003906 391.59375 C 1700.105469 381.777344 1702.226562 372.277344 1704.472656 362.226562 C 1704.59375 361.691406 1704.710938 361.160156 1704.832031 360.628906 C 1706.757812 361.273438 1708.683594 361.925781 1710.609375 362.574219 C 1728.074219 368.472656 1746.136719 374.570312 1764.738281 378.117188 C 1787.234375 382.421875 1809.792969 384.601562 1831.78125 384.601562 C 1840.117188 384.601562 1848.570312 384.292969 1856.902344 383.675781 C 1887.375 381.429688 1919.132812 374.09375 1956.75 360.605469 C 1956.816406 360.742188 1956.878906 360.878906 1956.941406 361.015625 C 1960.386719 368.339844 1960.179688 375.949219 1959.960938 384.003906 C 1959.894531 386.535156 1959.824219 389.140625 1959.878906 391.726562 C 1959.851562 391.746094 1959.46875 392.097656 1959.46875 392.097656 L 1959.40625 392.167969 C 1959.273438 392.316406 1959.140625 392.484375 1959.007812 392.65625 C 1956.84375 395.328125 1955.835938 398.40625 1955.074219 401.324219 C 1952.175781 412.347656 1946.738281 422.359375 1941.476562 432.039062 C 1938.089844 438.285156 1933.355469 445.105469 1923.921875 448.316406 C 1920.207031 449.585938 1916.84375 451.4375 1913.921875 453.820312 C 1909.476562 457.421875 1906.035156 462.222656 1903.691406 468.085938 C 1901.203125 474.3125 1901.546875 481.140625 1904.628906 486.820312 C 1907.726562 492.523438 1913.332031 496.554688 1920.003906 497.878906 C 1922.824219 498.4375 1925.554688 498.71875 1928.121094 498.71875 C 1937.972656 498.71875 1945.898438 494.664062 1951.679688 486.671875 C 1953.582031 484.054688 1955.613281 481.410156 1957.863281 478.625 C 1955.472656 484.964844 1953.402344 491.347656 1951.375 497.589844 C 1948.5625 506.261719 1945.65625 515.230469 1941.96875 523.761719 L 1941.859375 524.019531 C 1941.757812 524.253906 1941.664062 524.484375 1941.574219 524.726562 C 1935.460938 539.878906 1939.757812 555.898438 1953.378906 568.625 C 1955.933594 571.035156 1959.121094 573.503906 1963.347656 573.503906 C 1963.667969 573.503906 1963.996094 573.488281 1964.324219 573.460938 L 1964.625 573.433594 L 1964.652344 573.421875 C 1964.789062 573.40625 1964.925781 573.390625 1965.074219 573.363281 C 1965.269531 573.34375 1965.558594 573.292969 1965.867188 573.222656 C 1966.332031 573.242188 1966.789062 573.253906 1967.238281 573.253906 C 1978.210938 573.253906 1985.21875 567.558594 1988.652344 555.851562 C 1988.773438 555.652344 1988.886719 555.453125 1988.988281 555.261719 C 1989.078125 555.441406 1989.171875 555.621094 1989.269531 555.808594 C 1994.621094 568.6875 2003.988281 577.132812 2017.066406 580.808594 C 2018.019531 583.671875 2018.960938 586.542969 2019.90625 589.417969 C 2022.453125 597.15625 2025.082031 605.164062 2027.882812 612.96875 C 2031.105469 621.949219 2037.566406 626.5 2047.082031 626.5 C 2047.628906 626.5 2048.183594 626.484375 2048.75 626.457031 C 2064.300781 625.644531 2075.226562 618.097656 2082.160156 603.375 C 2087.714844 591.582031 2089.507812 579.140625 2091.410156 565.96875 C 2091.671875 564.148438 2091.9375 562.3125 2092.210938 560.46875 C 2100.65625 574.089844 2109.71875 581.523438 2121.761719 584.792969 C 2120.421875 589.675781 2119.296875 594.660156 2118.207031 599.496094 C 2115.496094 611.503906 2112.691406 623.917969 2106.554688 635.015625 C 2061.769531 716.035156 2024.738281 801.785156 1990.644531 882.671875 C 1989.578125 885.207031 1988.515625 887.746094 1987.453125 890.289062 C 1977.167969 914.882812 1966.53125 940.316406 1950.570312 962.621094 C 1941.511719 975.292969 1931.664062 981.449219 1920.457031 981.449219 "
       id="path4151" />
    <path
       style=" stroke:none;fill-rule:nonzero;fill:rgb(47.450256%,63.137817%,15.686035%);fill-opacity:1;"
       d="M 1965.722656 571.636719 C 1960.820312 581.507812 1952.554688 589.378906 1948.078125 599.535156 C 1931.722656 636.691406 1915.761719 674.019531 1898.699219 710.863281 C 1883.335938 743.996094 1868.796875 777.632812 1846.324219 807.203125 C 1844.035156 810.21875 1841.464844 813.152344 1838.515625 815.5 C 1833.328125 819.648438 1828.535156 819.664062 1823.109375 814.679688 C 1812.304688 804.761719 1804.863281 792.632812 1798.046875 780.238281 C 1773.210938 735.085938 1753.148438 687.835938 1732.804688 640.710938 C 1722.476562 616.773438 1713.296875 592.15625 1695.664062 571.855469 C 1701.640625 573.433594 1706.074219 570.203125 1709.304688 566.449219 C 1719.574219 554.507812 1726.132812 540.300781 1719.335938 525.554688 C 1711.105469 507.71875 1707.414062 488.621094 1699.464844 470.277344 C 1702.9375 473.96875 1705.632812 477.5 1708.15625 481.160156 C 1710.882812 485.085938 1714.023438 488.699219 1717.804688 491.726562 C 1727.238281 499.265625 1743.578125 499.136719 1752.03125 491.503906 C 1760.578125 483.792969 1760.828125 471.429688 1752.472656 460.71875 C 1748.511719 455.640625 1743.765625 451.148438 1737.285156 449.367188 C 1728.6875 446.984375 1724.035156 441.101562 1719.839844 434.035156 C 1712.523438 421.6875 1708.503906 408.09375 1702.886719 395.097656 C 1702.589844 394.6875 1702.289062 394.292969 1701.957031 393.914062 C 1701.515625 393.363281 1701.042969 392.859375 1700.554688 392.355469 C 1698.203125 380.921875 1701.230469 369.769531 1703.675781 358.574219 C 1723.894531 365.339844 1743.957031 372.546875 1765.039062 376.570312 C 1795.382812 382.371094 1825.757812 384.390625 1856.792969 382.101562 C 1891.871094 379.515625 1924.941406 370.417969 1957.523438 358.652344 C 1957.839844 359.21875 1958.136719 359.804688 1958.390625 360.371094 C 1963.230469 370.667969 1961.148438 381.660156 1961.480469 392.417969 C 1961.179688 392.667969 1960.898438 392.9375 1960.597656 393.207031 C 1960.488281 393.332031 1960.378906 393.472656 1960.265625 393.617188 C 1958.328125 396.011719 1957.363281 398.820312 1956.609375 401.722656 C 1953.707031 412.761719 1948.3125 422.777344 1942.871094 432.792969 C 1938.722656 440.4375 1933.566406 446.699219 1924.4375 449.808594 C 1920.839844 451.039062 1917.667969 452.804688 1914.925781 455.042969 C 1910.605469 458.542969 1907.355469 463.179688 1905.164062 468.667969 C 1900.335938 480.75 1907.214844 493.730469 1920.320312 496.332031 C 1932.382812 498.710938 1942.980469 496.015625 1950.410156 485.75 C 1954.304688 480.386719 1958.484375 475.261719 1963.136719 469.898438 C 1955.140625 487.894531 1951.089844 506.644531 1943.421875 524.386719 C 1943.296875 524.6875 1943.171875 524.972656 1943.0625 525.269531 C 1937.066406 540.125 1941.71875 555.566406 1954.464844 567.472656 C 1957.222656 570.074219 1960.21875 572.234375 1964.195312 571.890625 C 1964.226562 571.890625 1964.273438 571.890625 1964.304688 571.875 C 1964.460938 571.855469 1964.621094 571.839844 1964.792969 571.808594 C 1965.09375 571.777344 1965.410156 571.714844 1965.722656 571.636719 "
       id="path4153" />
    <path
       style=" stroke:none;fill-rule:nonzero;fill:rgb(63.137817%,84.313965%,20.783997%);fill-opacity:1;"
       d="M 2123.714844 583.683594 C 2118.746094 601.128906 2116.933594 619.515625 2107.945312 635.777344 C 2063.691406 715.828125 2027.480469 799.351562 1992.109375 883.28125 C 1980.515625 910.820312 1969.554688 938.8125 1951.859375 963.539062 C 1937.699219 983.347656 1921.691406 987.8125 1900.765625 978.035156 C 1887.296875 971.742188 1881.664062 959.613281 1882.597656 943.875 C 1883.84375 922.535156 1893.886719 903.46875 1897.925781 882.917969 C 1898.980469 877.589844 1900.007812 872.257812 1901.441406 864.847656 C 1892.957031 870.808594 1886.710938 875.648438 1880.023438 879.8125 C 1838.707031 905.566406 1817.777344 904.335938 1773.542969 873.960938 C 1769.378906 871.089844 1765.449219 867.90625 1760.5625 864.230469 C 1763.433594 883.742188 1769.722656 901.121094 1774.898438 918.796875 C 1777.894531 929.035156 1780.273438 939.394531 1779.835938 950.214844 C 1779.203125 965.148438 1771.492188 975.148438 1756.226562 980.050781 C 1738.832031 985.652344 1725.785156 982.496094 1715.867188 970.429688 C 1697.808594 948.496094 1687.226562 922.789062 1676.394531 897.289062 C 1639.648438 810.878906 1602.980469 724.410156 1557.734375 641.691406 C 1547.671875 623.300781 1543.761719 603.507812 1539.21875 583.703125 C 1553.382812 579.507812 1563.269531 570.34375 1570.824219 557.757812 C 1572.449219 568.5625 1574.121094 578.636719 1576.675781 588.527344 C 1580.886719 604.898438 1587.714844 619.421875 1606.875 624.074219 C 1619.382812 627.101562 1628.558594 624.089844 1632.21875 614.453125 C 1636.523438 603.066406 1639.648438 591.253906 1643.273438 579.617188 C 1658.730469 575.707031 1668.460938 566.257812 1672.511719 551.355469 C 1672.609375 551.132812 1672.703125 550.898438 1672.765625 550.675781 C 1673.082031 549.808594 1673.238281 548.925781 1673.300781 548.042969 C 1673.363281 548.941406 1673.523438 549.824219 1673.839844 550.707031 C 1673.917969 550.929688 1674.011719 551.132812 1674.105469 551.355469 C 1676.851562 565.582031 1682.101562 570.5625 1695.664062 571.855469 C 1713.296875 592.15625 1722.476562 616.773438 1732.804688 640.710938 C 1753.148438 687.835938 1773.210938 735.085938 1798.050781 780.238281 C 1804.863281 792.632812 1812.304688 804.757812 1823.109375 814.679688 C 1828.535156 819.664062 1833.328125 819.648438 1838.515625 815.5 C 1841.464844 813.152344 1844.035156 810.214844 1846.324219 807.203125 C 1868.796875 777.632812 1883.335938 743.996094 1898.699219 710.863281 C 1915.761719 674.019531 1931.722656 636.691406 1948.074219 599.535156 C 1952.554688 589.378906 1960.820312 581.507812 1965.722656 571.636719 C 1977.882812 572.234375 1984.175781 565.722656 1987.203125 555.203125 C 1987.472656 554.777344 1987.707031 554.351562 1987.898438 553.925781 C 1988.589844 552.394531 1988.8125 550.804688 1988.875 549.195312 C 1989.0625 550.820312 1989.441406 552.425781 1990.152344 554.003906 C 1990.308594 554.367188 1990.484375 554.714844 1990.671875 555.078125 C 1995.832031 567.472656 2004.726562 575.941406 2018.304688 579.507812 C 2021.960938 590.480469 2025.464844 601.539062 2029.375 612.433594 C 2032.480469 621.09375 2038.695312 625.398438 2048.679688 624.878906 C 2064.433594 624.058594 2074.496094 615.96875 2080.738281 602.707031 C 2087.570312 588.210938 2088.65625 572.394531 2091.339844 555.882812 C 2099.082031 569.554688 2108.339844 580.011719 2123.683594 583.652344 C 2123.699219 583.667969 2123.699219 583.683594 2123.714844 583.683594 "
       id="path4155" />
    <path
       style=" stroke:none;fill-rule:nonzero;fill:rgb(10.195923%,10.195923%,10.195923%);fill-opacity:1;"
       d="M 429.125 163.378906 C 417.902344 139.539062 402.480469 119.902344 382.847656 104.476562 C 363.214844 89.054688 340.292969 77.375 314.128906 69.421875 C 287.945312 61.484375 259.894531 57.5 229.988281 57.5 L 56.09375 57.5 L 56.09375 443.152344 L 245.410156 443.152344 C 305.234375 443.152344 353.617188 426.320312 390.558594 392.664062 C 427.476562 359.007812 445.953125 310.40625 445.953125 246.820312 C 445.953125 215.046875 440.34375 187.21875 429.125 163.378906 M 482.414062 1001.289062 L 164.074219 500.652344 L 56.09375 500.652344 L 56.09375 1001.289062 L 0 1001.289062 L 0 0 L 231.386719 0 C 268.773438 0 304.3125 5.394531 337.96875 16.128906 C 371.625 26.890625 400.59375 42.773438 424.917969 63.8125 C 449.21875 84.847656 468.609375 110.789062 483.117188 141.644531 C 497.601562 172.492188 504.851562 208.035156 504.851562 248.21875 C 504.851562 292.175781 498.0625 330.042969 484.515625 361.816406 C 470.953125 393.609375 451.777344 419.792969 427.019531 440.347656 C 402.238281 460.921875 373.03125 476.109375 339.375 485.925781 C 305.71875 495.742188 268.773438 500.652344 228.585938 500.652344 L 549.730469 1001.289062 Z M 482.414062 1001.289062 "
       id="path4157" />
    <path
       style=" stroke:none;fill-rule:nonzero;fill:rgb(10.195923%,10.195923%,10.195923%);fill-opacity:1;"
       d="M 688.558594 422.117188 L 746.054688 422.117188 L 746.054688 1001.289062 L 688.558594 1001.289062 Z M 718.003906 318.34375 C 707.707031 318.34375 696.972656 314.136719 685.75 305.71875 C 677.335938 297.304688 672.648438 286.085938 671.726562 272.058594 C 671.726562 246.820312 687.152344 231.394531 718.003906 225.785156 C 741.367188 225.785156 756.785156 241.210938 764.285156 272.058594 C 764.285156 302.914062 748.859375 318.34375 718.003906 318.34375 "
       id="path4159" />
    <g
       clip-path="url(#clip1)"
       clip-rule="nonzero"
       id="g4161">
      <path
         style=" stroke:none;fill-rule:nonzero;fill:rgb(10.195923%,10.195923%,10.195923%);fill-opacity:1;"
         d="M 1169.550781 1026.539062 L 896.089844 422.117188 L 957.792969 422.117188 L 1168.148438 883.5 L 1379.90625 422.117188 L 1444.414062 422.117188 Z M 1169.550781 1026.539062 "
         id="path4163" />
    </g>
    <path
       style=" stroke:none;fill-rule:nonzero;fill:rgb(10.195923%,10.195923%,10.195923%);fill-opacity:1;"
       d="M 1981.523438 516.074219 C 1937.558594 484.304688 1887.082031 468.394531 1830.058594 468.394531 C 1710.378906 468.394531 1631.84375 527.292969 1594.460938 645.089844 L 2064.257812 645.089844 C 2054.902344 591.804688 2027.316406 548.808594 1981.523438 516.074219 M 1586.050781 699.785156 C 1586.050781 778.320312 1607.085938 840.5 1649.152344 886.292969 C 1693.09375 933.054688 1753.386719 956.417969 1830.058594 956.417969 C 1869.324219 956.417969 1904.851562 949.890625 1936.640625 936.785156 C 1976.828125 919.957031 2012.828125 885.835938 2044.625 834.414062 L 2096.519531 858.25 C 2060.046875 927.449219 2003.953125 974.1875 1928.226562 998.492188 C 1899.234375 1007.828125 1866.527344 1012.511719 1830.058594 1012.511719 C 1743.109375 1012.511719 1671.59375 984.003906 1615.5 926.96875 C 1558.464844 869.953125 1529.957031 798.425781 1529.957031 712.40625 C 1529.957031 625.464844 1558.003906 553.9375 1614.097656 497.84375 C 1671.109375 440.828125 1743.109375 412.300781 1830.058594 412.300781 C 1916.0625 412.300781 1987.128906 438.949219 2043.222656 492.234375 C 2100.234375 545.523438 2128.765625 614.726562 2128.765625 699.785156 Z M 1586.050781 699.785156 "
       id="path4165" />
    <g
       clip-path="url(#clip2)"
       clip-rule="nonzero"
       id="g4167">
      <path
         style=" stroke:none;fill-rule:nonzero;fill:rgb(10.195923%,10.195923%,10.195923%);fill-opacity:1;"
         d="M 2297.042969 479.613281 L 2297.042969 1001.289062 L 2239.546875 1001.289062 L 2239.546875 479.613281 L 2161.011719 479.613281 L 2161.011719 422.117188 L 2239.546875 422.117188 L 2239.546875 168.285156 L 2297.042969 168.285156 L 2297.042969 422.117188 L 2431.671875 422.117188 L 2431.671875 479.613281 Z M 2297.042969 479.613281 "
         id="path4169" />
    </g>
    <path
       style=" stroke:none;fill-rule:nonzero;fill:rgb(100%,100%,100%);fill-opacity:1;"
       d="M 2022.082031 509.941406 C 2022.082031 510.847656 2022.566406 511.566406 2022.917969 512.085938 L 2023.738281 513.296875 L 2024.886719 512.640625 L 2027 512.347656 L 2025.972656 510.367188 C 2025.601562 509.648438 2025.15625 509.097656 2024.609375 508.6875 L 2022.082031 506.769531 Z M 1615.515625 623.628906 C 1613 623.628906 1610.214844 623.261719 1607.238281 622.542969 C 1588.308594 617.945312 1582.09375 603.289062 1578.195312 588.136719 C 1575.78125 578.789062 1574.121094 569.140625 1572.375 557.523438 L 1571.722656 553.183594 L 1569.464844 556.945312 C 1561.5625 570.109375 1551.574219 578.351562 1538.921875 582.140625 C 1538.332031 582.183594 1537.75 582.207031 1537.179688 582.207031 C 1530.992188 582.207031 1515.949219 579.117188 1509.828125 550.507812 C 1507.636719 540.296875 1508.367188 529.710938 1512.199219 516.191406 C 1518.199219 494.984375 1519.136719 475.652344 1515.078125 457.089844 C 1510.101562 434.367188 1517.085938 422.570312 1539.988281 415.015625 C 1552.472656 410.894531 1563.671875 408.890625 1574.226562 408.890625 C 1586.847656 408.890625 1598.332031 411.730469 1609.328125 417.578125 L 1611.394531 418.675781 L 1613.609375 397.265625 C 1614.253906 375.84375 1622.175781 356.195312 1637.832031 337.085938 C 1639.9375 334.496094 1642.339844 332.023438 1644.660156 329.632812 C 1645.820312 328.4375 1646.980469 327.242188 1648.113281 326.027344 L 1649.226562 324.828125 L 1647.992188 323.757812 C 1633.59375 311.289062 1619.804688 298.828125 1609.371094 283.515625 L 1609.042969 283.035156 C 1597.125 265.582031 1584.804688 247.535156 1587.851562 224.921875 L 1587.871094 224.777344 L 1587.863281 224.628906 C 1587.027344 208.996094 1589.925781 192.921875 1597.265625 172.507812 C 1597.28125 172.464844 1597.296875 172.421875 1597.308594 172.386719 L 1597.316406 172.386719 L 1597.945312 170.621094 L 1598.425781 169.382812 L 1597.289062 168.699219 C 1597.15625 168.617188 1597.019531 168.539062 1596.886719 168.46875 C 1580.289062 154.421875 1570.21875 132.164062 1569.242188 107.378906 C 1568.273438 82.730469 1576.511719 59.921875 1591.84375 44.800781 C 1599.066406 37.691406 1606.9375 33.257812 1615.902344 31.246094 C 1616.957031 31.097656 1618.125 30.960938 1619.296875 30.851562 L 1619.667969 30.816406 L 1621.183594 29.878906 C 1630.945312 23.84375 1641.164062 20.910156 1652.417969 20.910156 C 1662.671875 20.910156 1673.855469 23.398438 1686.601562 28.519531 C 1698.015625 33.097656 1708.09375 39.199219 1716.550781 46.660156 C 1720.058594 49.746094 1723.464844 51.179688 1727.277344 51.179688 C 1729.449219 51.179688 1731.828125 50.714844 1734.539062 49.757812 C 1759.722656 40.894531 1786.613281 35.789062 1816.738281 34.152344 C 1822.417969 33.839844 1828.144531 33.683594 1833.753906 33.683594 C 1867.523438 33.683594 1900.707031 39.421875 1932.382812 50.730469 C 1934.273438 51.398438 1935.863281 51.710938 1937.386719 51.710938 C 1940.058594 51.710938 1942.464844 50.753906 1945.195312 48.609375 C 1959.09375 37.65625 1976.175781 25.96875 1997.488281 22.351562 C 2002.964844 21.425781 2007.933594 20.976562 2012.683594 20.976562 C 2025.101562 20.976562 2035.546875 24.113281 2044.617188 30.566406 L 2045.550781 31.179688 L 2045.945312 31.214844 C 2046.058594 31.226562 2046.160156 31.234375 2046.261719 31.253906 C 2055.191406 33.257812 2063.0625 37.691406 2070.289062 44.804688 C 2085.550781 59.851562 2093.789062 82.5625 2092.894531 107.105469 C 2091.992188 131.910156 2081.964844 154.230469 2065.390625 168.347656 L 2064.46875 169.128906 L 2066.125 172.617188 C 2073.785156 187.074219 2077.273438 203.714844 2076.820312 223.558594 L 2076.828125 223.714844 C 2078.613281 246.539062 2066.128906 264.621094 2054.058594 282.109375 L 2051.515625 285.800781 C 2043.492188 297.480469 2032.722656 307.230469 2022.308594 316.65625 C 2019.753906 318.96875 2017.199219 321.28125 2014.683594 323.621094 L 2013.515625 324.707031 L 2014.613281 325.863281 C 2031.898438 344.058594 2042.058594 361.144531 2046.585938 379.640625 C 2047.628906 383.890625 2048.179688 388.378906 2048.714844 392.71875 C 2048.964844 394.738281 2049.210938 396.757812 2049.507812 398.765625 L 2050.515625 418.238281 L 2052.65625 417.191406 C 2064.066406 411.628906 2076.152344 408.808594 2088.574219 408.808594 C 2097.992188 408.808594 2107.769531 410.433594 2117.636719 413.632812 C 2146.417969 422.984375 2152.714844 432.945312 2146.925781 459.964844 C 2143.199219 477.394531 2144.320312 495.289062 2150.558594 517.992188 C 2155.972656 537.726562 2153.984375 554.769531 2144.476562 570.097656 C 2139.386719 578.300781 2133.199219 582.125 2125 582.125 C 2124.660156 582.125 2124.320312 582.117188 2123.976562 582.101562 C 2111.019531 579.007812 2101.664062 570.933594 2092.703125 555.105469 L 2090.492188 551.203125 L 2089.773438 555.628906 C 2089.234375 558.957031 2088.757812 562.253906 2088.285156 565.519531 C 2086.421875 578.453125 2084.664062 590.667969 2079.304688 602.035156 C 2072.917969 615.601562 2062.867188 622.5625 2048.589844 623.304688 C 2048.074219 623.332031 2047.574219 623.34375 2047.082031 623.34375 C 2038.925781 623.34375 2033.613281 619.601562 2030.851562 611.902344 C 2028.0625 604.136719 2025.441406 596.15625 2022.902344 588.433594 C 2021.871094 585.289062 2020.839844 582.144531 2019.792969 579.007812 L 2019.519531 578.199219 L 2018.695312 577.980469 C 2006.011719 574.652344 1997.316406 566.964844 1992.121094 554.472656 C 1991.890625 554.019531 1991.734375 553.707031 1991.59375 553.378906 C 1991 552.058594 1990.625 550.640625 1990.433594 549.011719 L 1987.292969 549.132812 C 1987.222656 550.871094 1986.964844 552.148438 1986.453125 553.277344 C 1986.289062 553.644531 1986.089844 554.003906 1985.863281 554.363281 L 1985.742188 554.550781 L 1985.679688 554.769531 C 1982.671875 565.226562 1976.808594 570.097656 1967.238281 570.097656 C 1966.765625 570.097656 1966.285156 570.085938 1965.792969 570.0625 L 1965.558594 570.050781 L 1965.328125 570.109375 C 1965.089844 570.167969 1964.851562 570.21875 1964.625 570.242188 C 1964.371094 570.28125 1964.257812 570.292969 1964.144531 570.304688 L 1963.851562 570.335938 C 1963.65625 570.34375 1963.5 570.347656 1963.347656 570.347656 C 1960.230469 570.347656 1957.753906 568.417969 1955.539062 566.328125 C 1942.914062 554.53125 1938.898438 539.785156 1944.515625 525.863281 C 1944.605469 525.625 1944.683594 525.441406 1944.761719 525.25 L 1944.871094 524.992188 C 1948.609375 516.34375 1951.542969 507.304688 1954.378906 498.5625 C 1957.378906 489.308594 1960.484375 479.738281 1964.570312 470.539062 L 1961.9375 468.867188 C 1956.816406 474.769531 1952.746094 479.84375 1949.128906 484.824219 C 1943.96875 491.949219 1936.902344 495.5625 1928.121094 495.5625 C 1925.757812 495.5625 1923.230469 495.300781 1920.617188 494.785156 C 1914.785156 493.625 1910.089844 490.261719 1907.402344 485.3125 C 1904.765625 480.460938 1904.480469 474.609375 1906.621094 469.253906 C 1908.761719 463.898438 1911.886719 459.53125 1915.914062 456.269531 C 1918.546875 454.117188 1921.582031 452.449219 1924.9375 451.300781 C 1935.402344 447.738281 1940.574219 440.324219 1944.25 433.542969 C 1949.597656 423.699219 1955.132812 413.519531 1958.125 402.125 C 1958.800781 399.542969 1959.671875 396.847656 1961.484375 394.609375 C 1961.578125 394.492188 1961.652344 394.394531 1961.722656 394.308594 L 1961.925781 394.125 C 1962.113281 393.953125 1962.296875 393.785156 1962.492188 393.621094 L 1963.074219 393.132812 L 1963.050781 392.371094 C 1962.964844 389.636719 1963.042969 386.816406 1963.117188 384.089844 C 1963.332031 376.019531 1963.558594 367.675781 1959.808594 359.699219 C 1959.550781 359.121094 1959.230469 358.496094 1958.894531 357.886719 L 1958.242188 356.714844 L 1956.980469 357.171875 C 1919.070312 370.859375 1887.199219 378.28125 1856.671875 380.53125 C 1848.417969 381.140625 1840.042969 381.449219 1831.78125 381.449219 C 1809.988281 381.449219 1787.632812 379.285156 1765.328125 375.019531 C 1746.9375 371.511719 1728.980469 365.449219 1711.617188 359.585938 C 1709.136719 358.75 1706.652344 357.910156 1704.167969 357.078125 L 1702.503906 356.519531 C 1702.503906 356.519531 1701.640625 360.4375 1701.394531 361.539062 C 1699.144531 371.613281 1696.816406 382.035156 1699 392.671875 L 1699.09375 393.121094 L 1699.414062 393.453125 C 1699.867188 393.921875 1700.308594 394.390625 1700.71875 394.902344 C 1701.019531 395.246094 1701.265625 395.566406 1701.503906 395.886719 C 1703.292969 400.042969 1704.953125 404.335938 1706.558594 408.492188 C 1709.957031 417.296875 1713.476562 426.402344 1718.476562 434.84375 C 1723.148438 442.710938 1728.0625 448.449219 1736.855469 450.886719 C 1742.015625 452.304688 1746.582031 455.738281 1751.21875 461.691406 C 1759.003906 471.664062 1758.902344 483.175781 1750.964844 490.335938 C 1747.167969 493.761719 1741.371094 495.730469 1735.058594 495.730469 C 1728.878906 495.730469 1722.945312 493.820312 1718.785156 490.496094 C 1715.402344 487.789062 1712.347656 484.441406 1709.441406 480.261719 C 1706.464844 475.941406 1703.738281 472.527344 1700.605469 469.199219 L 1698.011719 470.90625 C 1701.765625 479.570312 1704.613281 488.570312 1707.367188 497.269531 C 1710.40625 506.867188 1713.546875 516.789062 1717.898438 526.214844 C 1723.4375 538.234375 1720.140625 551.421875 1708.101562 565.417969 C 1705.050781 568.964844 1701.976562 570.691406 1698.707031 570.691406 C 1697.847656 570.691406 1696.957031 570.570312 1696.058594 570.335938 L 1695.933594 570.300781 L 1695.804688 570.289062 C 1682.964844 569.0625 1678.253906 564.570312 1675.648438 551.058594 L 1675.617188 550.894531 L 1675.476562 550.566406 C 1675.417969 550.4375 1675.363281 550.3125 1675.316406 550.179688 C 1675.074219 549.5 1674.925781 548.765625 1674.867188 547.933594 L 1671.722656 547.929688 C 1671.664062 548.753906 1671.515625 549.476562 1671.277344 550.136719 C 1671.195312 550.40625 1671.125 550.578125 1671.054688 550.742188 L 1671.011719 550.839844 L 1670.984375 550.941406 C 1667.046875 565.417969 1657.855469 574.296875 1642.878906 578.089844 L 1642.023438 578.304688 L 1641.761719 579.148438 C 1640.675781 582.628906 1639.636719 586.121094 1638.597656 589.617188 C 1636.207031 597.652344 1633.738281 605.964844 1630.738281 613.898438 C 1628.285156 620.355469 1623.164062 623.628906 1615.515625 623.628906 "
       id="path4171" />
    <path
       style=" stroke:none;fill-rule:nonzero;fill:rgb(47.450256%,63.137817%,15.686035%);fill-opacity:1;"
       d="M 2145.816406 570.929688 C 2140.820312 578.988281 2133.988281 584.144531 2123.707031 583.671875 C 2123.691406 583.671875 2123.691406 583.671875 2123.675781 583.65625 C 2108.332031 580.011719 2099.074219 569.554688 2091.332031 555.882812 C 2088.648438 572.394531 2087.5625 588.214844 2080.730469 602.707031 C 2074.488281 615.96875 2064.425781 624.058594 2048.671875 624.878906 C 2038.6875 625.398438 2032.472656 621.09375 2029.367188 612.4375 C 2025.457031 601.539062 2021.953125 590.484375 2018.296875 579.507812 C 2018.59375 579.523438 2018.878906 579.554688 2019.164062 579.554688 C 2019.257812 579.570312 2019.367188 579.570312 2019.464844 579.570312 C 2036.195312 580.167969 2048.117188 562.160156 2039.445312 545.582031 C 2033.640625 534.527344 2028.894531 522.953125 2023.671875 511.628906 C 2023.863281 511.441406 2024.035156 511.300781 2024.226562 511.203125 C 2024.335938 511.140625 2024.460938 511.109375 2024.570312 511.09375 C 2025.015625 511 2025.457031 511.1875 2025.882812 511.644531 C 2030.550781 517.621094 2033.734375 524.671875 2039.855469 529.609375 C 2047.660156 535.933594 2054.835938 534.496094 2059.597656 525.777344 C 2065.214844 515.460938 2062.894531 505.039062 2057.515625 496.125 C 2045.722656 476.617188 2045.027344 456.589844 2050.34375 435.378906 C 2051.917969 429.085938 2051.476562 422.320312 2051.949219 415.773438 L 2051.964844 415.773438 C 2073.476562 405.289062 2095.902344 404.925781 2118.125 412.132812 C 2147.773438 421.769531 2154.476562 432.257812 2148.46875 460.296875 C 2144.289062 479.851562 2146.90625 498.746094 2152.078125 517.574219 C 2157.1875 536.199219 2156.273438 554.070312 2145.816406 570.929688 "
       id="path4173" />
    <path
       style=" stroke:none;fill-rule:nonzero;fill:rgb(91.764832%,93.333435%,18.431091%);fill-opacity:1;"
       d="M 2059.597656 525.777344 C 2054.835938 534.496094 2047.660156 535.933594 2039.855469 529.609375 C 2033.734375 524.671875 2030.550781 517.625 2025.882812 511.644531 C 2025.457031 511.1875 2025.015625 511 2024.574219 511.09375 C 2024.335938 510.636719 2024.050781 510.242188 2023.65625 509.941406 C 2023.65625 510.351562 2023.925781 510.761719 2024.226562 511.203125 C 2024.035156 511.296875 2023.863281 511.441406 2023.671875 511.628906 C 2028.894531 522.953125 2033.640625 534.527344 2039.445312 545.585938 C 2048.117188 562.160156 2036.195312 580.167969 2019.460938 579.570312 C 2019.367188 579.570312 2019.257812 579.570312 2019.164062 579.554688 C 2018.878906 579.554688 2018.59375 579.523438 2018.296875 579.507812 C 2004.71875 575.941406 1995.824219 567.472656 1990.664062 555.078125 C 1990.476562 554.714844 1990.300781 554.367188 1990.144531 554.007812 C 1989.433594 552.429688 1989.054688 550.820312 1988.867188 549.195312 C 1988.804688 550.804688 1988.582031 552.398438 1987.890625 553.925781 C 1987.699219 554.351562 1987.464844 554.777344 1987.195312 555.203125 C 1984.167969 565.722656 1977.875 572.238281 1965.714844 571.636719 C 1965.402344 571.714844 1965.085938 571.777344 1964.785156 571.8125 C 1964.613281 571.84375 1964.453125 571.859375 1964.296875 571.875 C 1964.265625 571.890625 1964.21875 571.890625 1964.1875 571.890625 C 1960.210938 572.238281 1957.214844 570.078125 1954.457031 567.472656 C 1941.714844 555.566406 1937.058594 540.128906 1943.054688 525.269531 C 1943.164062 524.972656 1943.289062 524.6875 1943.417969 524.386719 C 1951.082031 506.644531 1955.132812 487.894531 1963.128906 469.898438 C 1958.476562 475.261719 1954.296875 480.386719 1950.402344 485.75 C 1942.972656 496.015625 1932.375 498.714844 1920.3125 496.332031 C 1907.207031 493.730469 1900.332031 480.75 1905.15625 468.671875 C 1907.347656 463.183594 1910.597656 458.546875 1914.917969 455.042969 C 1917.664062 452.804688 1920.832031 451.039062 1924.429688 449.808594 C 1933.558594 446.703125 1938.714844 440.441406 1942.863281 432.792969 C 1948.304688 422.777344 1953.699219 412.761719 1956.601562 401.722656 C 1957.355469 398.820312 1958.320312 396.015625 1960.257812 393.617188 C 1960.371094 393.476562 1960.480469 393.332031 1960.589844 393.207031 C 1960.890625 392.9375 1961.175781 392.671875 1961.472656 392.417969 C 1975.097656 380.542969 1992.054688 378.839844 2009.289062 379.265625 C 2020.25 379.535156 2031.054688 381.664062 2041.003906 386.835938 C 2046.144531 389.515625 2049.949219 392.828125 2051.066406 398.539062 C 2051.367188 404.277344 2051.667969 410.019531 2051.964844 415.773438 L 2051.949219 415.773438 C 2051.476562 422.320312 2051.917969 429.085938 2050.34375 435.378906 C 2045.027344 456.589844 2045.722656 476.621094 2057.515625 496.128906 C 2062.894531 505.039062 2065.214844 515.460938 2059.597656 525.777344 "
       id="path4175" />
    <path
       style=" stroke:none;fill-rule:nonzero;fill:rgb(85.098267%,93.725586%,68.235779%);fill-opacity:1;"
       d="M 2052.824219 286.691406 C 2042.746094 301.355469 2028.777344 312.679688 2015.765625 324.777344 C 1997.136719 337.347656 1977.726562 348.621094 1957.523438 358.652344 C 1924.941406 370.417969 1891.871094 379.515625 1856.792969 382.101562 C 1825.757812 384.390625 1795.382812 382.371094 1765.039062 376.566406 C 1743.957031 372.546875 1723.894531 365.339844 1703.675781 358.574219 C 1684.625 347.597656 1664.753906 337.929688 1646.964844 324.949219 C 1632.707031 312.601562 1618.671875 299.953125 1608.074219 284.402344 C 1595.726562 266.3125 1583.140625 248.132812 1586.292969 224.710938 C 1617.757812 237.328125 1650.480469 234.835938 1683.128906 231.871094 C 1702.621094 230.089844 1722.019531 230.230469 1741.464844 231.933594 C 1789.5625 236.160156 1837.492188 241.445312 1886.035156 235.152344 C 1926.894531 229.851562 1968.011719 229.207031 2009.328125 233.730469 C 2032.636719 236.289062 2056.65625 234.929688 2078.40625 223.589844 C 2080.363281 248.574219 2065.996094 267.480469 2052.824219 286.691406 "
       id="path4177" />
    <path
       style=" stroke:none;fill-rule:nonzero;fill:rgb(63.137817%,84.313965%,20.783997%);fill-opacity:1;"
       d="M 2051.070312 398.535156 C 2049.949219 392.828125 2046.152344 389.515625 2041.007812 386.835938 C 2031.058594 381.660156 2020.253906 379.53125 2009.292969 379.265625 C 1992.058594 378.839844 1975.101562 380.542969 1961.476562 392.417969 C 1961.144531 381.660156 1963.226562 370.667969 1958.386719 360.371094 C 1958.132812 359.804688 1957.832031 359.21875 1957.519531 358.652344 C 1977.722656 348.621094 1997.136719 337.347656 2015.761719 324.777344 C 2030.789062 340.59375 2042.933594 358.070312 2048.121094 379.265625 C 2049.667969 385.558594 2050.125 392.101562 2051.070312 398.535156 "
       id="path4179" />
    <path
       style=" stroke:none;fill-rule:nonzero;fill:rgb(63.137817%,84.313965%,20.783997%);fill-opacity:1;"
       d="M 1700.550781 392.355469 C 1698.515625 390.257812 1696.101562 388.554688 1693.390625 387.292969 C 1669.496094 376.191406 1645.445312 376.410156 1621.445312 386.945312 C 1616.886719 388.949219 1613.542969 392.308594 1612.042969 397.101562 C 1612.738281 373.949219 1621.964844 353.96875 1636.613281 336.085938 C 1639.800781 332.171875 1643.507812 328.65625 1646.960938 324.949219 C 1664.75 337.929688 1684.621094 347.597656 1703.671875 358.574219 C 1701.226562 369.769531 1698.199219 380.921875 1700.550781 392.355469 "
       id="path4181" />
    <path
       style=" stroke:none;fill-rule:nonzero;fill:rgb(91.764832%,93.333435%,18.431091%);fill-opacity:1;"
       d="M 1752.03125 491.503906 C 1743.578125 499.136719 1727.238281 499.265625 1717.808594 491.726562 C 1714.023438 488.699219 1710.882812 485.085938 1708.15625 481.160156 C 1705.632812 477.5 1702.9375 473.96875 1699.464844 470.277344 C 1707.414062 488.621094 1711.105469 507.71875 1719.335938 525.554688 C 1726.132812 540.300781 1719.574219 554.507812 1709.308594 566.449219 C 1706.074219 570.203125 1701.640625 573.433594 1695.664062 571.855469 C 1682.101562 570.5625 1676.851562 565.582031 1674.105469 551.355469 C 1674.011719 551.132812 1673.917969 550.929688 1673.839844 550.707031 C 1673.523438 549.824219 1673.363281 548.941406 1673.300781 548.042969 C 1673.238281 548.925781 1673.082031 549.808594 1672.765625 550.675781 C 1672.703125 550.898438 1672.609375 551.132812 1672.515625 551.355469 C 1668.460938 566.257812 1658.730469 575.707031 1643.273438 579.617188 C 1642.847656 579.570312 1642.421875 579.519531 1642.011719 579.460938 C 1622.882812 576.90625 1615.453125 563.957031 1622.789062 546.386719 C 1627.753906 534.480469 1635.105469 523.503906 1637.992188 510.714844 C 1633.96875 515.304688 1630.703125 520.300781 1627.078125 525.050781 C 1623.324219 529.96875 1618.515625 534.667969 1611.78125 532.953125 C 1604.148438 530.996094 1600.679688 524.8125 1600.078125 517.242188 C 1599.257812 507.101562 1603.058594 498.128906 1607.867188 489.519531 C 1615.597656 475.671875 1617.566406 461.351562 1614.066406 445.894531 C 1611.859375 436.179688 1611.355469 426.105469 1610.078125 416.183594 C 1610.738281 409.828125 1611.386719 403.457031 1612.046875 397.101562 C 1613.546875 392.308594 1616.890625 388.949219 1621.449219 386.945312 C 1645.449219 376.410156 1669.5 376.1875 1693.394531 387.292969 C 1696.105469 388.554688 1698.519531 390.257812 1700.554688 392.355469 C 1701.042969 392.859375 1701.515625 393.363281 1701.957031 393.914062 C 1702.289062 394.292969 1702.589844 394.6875 1702.886719 395.097656 C 1708.503906 408.09375 1712.523438 421.6875 1719.84375 434.035156 C 1724.035156 441.101562 1728.6875 446.984375 1737.285156 449.367188 C 1743.765625 451.148438 1748.511719 455.640625 1752.472656 460.71875 C 1760.828125 471.429688 1760.578125 483.792969 1752.03125 491.503906 "
       id="path4183" />
    <path
       style=" stroke:none;fill-rule:nonzero;fill:rgb(47.450256%,63.137817%,15.686035%);fill-opacity:1;"
       d="M 1643.273438 579.617188 C 1639.648438 591.253906 1636.523438 603.066406 1632.21875 614.453125 C 1628.558594 624.089844 1619.382812 627.101562 1606.875 624.074219 C 1587.714844 619.421875 1580.886719 604.898438 1576.675781 588.527344 C 1574.121094 578.636719 1572.449219 568.5625 1570.824219 557.757812 C 1563.269531 570.34375 1553.382812 579.507812 1539.21875 583.703125 C 1520.609375 585.183594 1511.589844 566.242188 1508.292969 550.835938 C 1505.738281 538.929688 1507.378906 527.445312 1510.6875 515.761719 C 1516.097656 496.628906 1517.882812 477.25 1513.542969 457.425781 C 1508.371094 433.800781 1515.832031 421.324219 1539.503906 413.519531 C 1563.238281 405.679688 1587.019531 403.929688 1610.078125 416.183594 C 1611.355469 426.105469 1611.859375 436.179688 1614.066406 445.898438 C 1617.570312 461.351562 1615.597656 475.671875 1607.871094 489.519531 C 1603.058594 498.128906 1599.257812 507.101562 1600.078125 517.242188 C 1600.675781 524.8125 1604.148438 530.996094 1611.78125 532.953125 C 1618.515625 534.667969 1623.324219 529.96875 1627.078125 525.050781 C 1630.707031 520.300781 1633.96875 515.304688 1637.992188 510.714844 C 1635.105469 523.503906 1627.757812 534.480469 1622.789062 546.386719 C 1615.457031 563.957031 1622.882812 576.902344 1642.011719 579.460938 C 1642.421875 579.523438 1642.847656 579.570312 1643.273438 579.617188 "
       id="path4185" />
    <path
       style=" stroke:none;fill-rule:nonzero;fill:rgb(95.294189%,63.137817%,19.999695%);fill-opacity:1;"
       d="M 1662.183594 161.863281 C 1661.929688 162.226562 1661.679688 162.589844 1661.410156 162.9375 C 1661.394531 162.953125 1661.378906 162.984375 1661.363281 163 C 1649.582031 178.675781 1627.488281 184.179688 1608.5 176.292969 C 1608.46875 176.277344 1608.421875 176.261719 1608.375 176.246094 C 1607.601562 175.917969 1606.8125 175.570312 1606.039062 175.191406 C 1604.289062 174.339844 1602.570312 173.425781 1600.867188 172.464844 C 1600.015625 172.019531 1599.179688 171.546875 1598.34375 171.074219 C 1597.730469 170.726562 1597.113281 170.382812 1596.484375 170.050781 C 1596.324219 169.953125 1596.167969 169.859375 1596.007812 169.78125 C 1560.460938 139.847656 1557.78125 76.183594 1590.742188 43.679688 C 1597.679688 36.851562 1605.804688 31.898438 1615.566406 29.707031 C 1616.761719 29.53125 1617.960938 29.390625 1619.160156 29.28125 C 1620.011719 29.199219 1620.878906 29.136719 1621.746094 29.089844 C 1626.164062 28.824219 1630.59375 28.996094 1635.011719 29.785156 C 1637.722656 30.558594 1640.386719 31.410156 1642.960938 32.402344 C 1643.179688 32.480469 1643.382812 32.558594 1643.605469 32.671875 C 1651.035156 35.605469 1657.578125 39.847656 1662.136719 47.023438 C 1661.789062 46.925781 1661.441406 46.832031 1661.113281 46.769531 C 1660.417969 46.582031 1659.722656 46.421875 1659.0625 46.28125 C 1648.875 44.183594 1642.546875 46.769531 1635.925781 55.382812 C 1617.804688 78.941406 1617.789062 130.402344 1635.910156 153.710938 C 1642.707031 162.433594 1649.582031 165.019531 1659.945312 162.480469 C 1660.667969 162.308594 1661.410156 162.101562 1662.183594 161.863281 "
       id="path4187" />
    <path
       style=" stroke:none;fill-rule:nonzero;fill:rgb(1.960754%,1.960754%,1.176453%);fill-opacity:1;"
       d="M 1664.125 160.304688 C 1663.933594 160.492188 1663.746094 160.632812 1663.554688 160.792969 C 1663.113281 161.171875 1662.65625 161.519531 1662.183594 161.863281 C 1661.410156 162.101562 1660.667969 162.304688 1659.945312 162.480469 C 1649.582031 165.019531 1642.707031 162.433594 1635.910156 153.710938 C 1617.789062 130.402344 1617.804688 78.941406 1635.925781 55.378906 C 1642.550781 46.769531 1648.875 44.183594 1659.0625 46.28125 C 1659.722656 46.421875 1660.417969 46.582031 1661.113281 46.769531 C 1661.441406 46.832031 1661.789062 46.925781 1662.136719 47.023438 C 1691.28125 69.304688 1691.957031 136.726562 1664.125 160.304688 "
       id="path4189" />
    <path
       style=" stroke:none;fill-rule:nonzero;fill:rgb(96.470642%,96.470642%,96.470642%);fill-opacity:1;"
       d="M 1659.730469 84.707031 C 1659.730469 94.289062 1656.707031 102.054688 1652.976562 102.054688 C 1649.25 102.054688 1646.226562 94.289062 1646.226562 84.707031 C 1646.226562 75.125 1649.25 67.355469 1652.976562 67.355469 C 1656.707031 67.355469 1659.730469 75.125 1659.730469 84.707031 "
       id="path4191" />
    <path
       style=" stroke:none;fill-rule:nonzero;fill:rgb(95.294189%,63.137817%,19.999695%);fill-opacity:1;"
       d="M 2066.417969 169.546875 C 2066.324219 169.625 2066.230469 169.703125 2066.136719 169.78125 C 2065.347656 170.207031 2064.574219 170.632812 2063.800781 171.074219 C 2061.261719 172.492188 2058.722656 173.929688 2056.105469 175.191406 C 2055.695312 175.378906 2055.300781 175.570312 2054.890625 175.757812 L 2054.875 175.757812 C 2035.636719 184.417969 2012.832031 179.007812 2000.78125 163 C 2000.765625 162.984375 2000.75 162.953125 2000.734375 162.9375 C 2000.46875 162.589844 2000.214844 162.226562 1999.960938 161.863281 C 2000.941406 162.164062 2001.902344 162.417969 2002.816406 162.621094 C 2012.832031 164.90625 2019.582031 162.257812 2026.234375 153.710938 C 2044.355469 130.402344 2044.339844 78.941406 2026.21875 55.382812 C 2020.101562 47.433594 2014.25 44.609375 2005.355469 45.886719 C 2004.628906 45.980469 2003.855469 46.125 2003.085938 46.28125 C 2002.089844 46.484375 2001.066406 46.738281 2000.007812 47.023438 C 2006.253906 37.179688 2016.269531 32.859375 2027.136719 29.785156 C 2031.550781 28.996094 2035.980469 28.820312 2040.398438 29.089844 C 2042.039062 29.183594 2043.664062 29.328125 2045.285156 29.53125 C 2045.554688 29.5625 2045.824219 29.59375 2046.089844 29.644531 C 2046.265625 29.65625 2046.421875 29.675781 2046.578125 29.707031 C 2056.34375 31.898438 2064.464844 36.851562 2071.402344 43.679688 C 2104.269531 76.089844 2101.699219 139.503906 2066.417969 169.546875 "
       id="path4193" />
    <path
       style=" stroke:none;fill-rule:nonzero;fill:rgb(1.960754%,1.960754%,1.176453%);fill-opacity:1;"
       d="M 2026.234375 153.710938 C 2019.582031 162.257812 2012.832031 164.90625 2002.816406 162.621094 C 2001.902344 162.417969 2000.941406 162.164062 1999.960938 161.863281 C 1999.488281 161.519531 1999.03125 161.171875 1998.589844 160.792969 C 1998.402344 160.636719 1998.210938 160.492188 1998.023438 160.304688 C 1970.1875 136.726562 1970.863281 69.304688 2000.007812 47.023438 C 2001.066406 46.738281 2002.089844 46.484375 2003.085938 46.28125 C 2003.855469 46.125 2004.628906 45.980469 2005.355469 45.886719 C 2014.25 44.609375 2020.101562 47.433594 2026.21875 55.378906 C 2044.339844 78.941406 2044.355469 130.402344 2026.234375 153.710938 "
       id="path4195" />
    <path
       style=" stroke:none;fill-rule:nonzero;fill:rgb(96.470642%,96.470642%,96.470642%);fill-opacity:1;"
       d="M 2002.410156 84.707031 C 2002.410156 94.289062 2005.433594 102.054688 2009.164062 102.054688 C 2012.894531 102.054688 2015.917969 94.289062 2015.917969 84.707031 C 2015.917969 75.125 2012.894531 67.355469 2009.164062 67.355469 C 2005.433594 67.355469 2002.410156 75.125 2002.410156 84.707031 "
       id="path4197" />
    <path
       style=" stroke:none;fill-rule:nonzero;fill:rgb(63.137817%,84.313965%,20.783997%);fill-opacity:1;"
       d="M 2067.554688 171.941406 L 2066.421875 169.546875 C 2066.324219 169.625 2066.230469 169.703125 2066.136719 169.78125 C 2065.347656 170.207031 2064.574219 170.632812 2063.800781 171.074219 C 2061.261719 172.496094 2058.722656 173.929688 2056.105469 175.191406 C 2055.695312 175.378906 2055.300781 175.570312 2054.890625 175.757812 L 2054.875 175.757812 C 2035.636719 184.417969 2012.832031 179.007812 2000.78125 163 C 2000.765625 162.984375 2000.75 162.953125 2000.734375 162.9375 C 2000.464844 162.589844 2000.214844 162.226562 1999.960938 161.863281 C 1999.488281 161.519531 1999.03125 161.171875 1998.589844 160.792969 C 1998.402344 160.636719 1998.210938 160.492188 1998.023438 160.304688 C 1970.1875 136.726562 1970.863281 69.304688 2000.007812 47.023438 C 2006.253906 37.179688 2016.269531 32.859375 2027.136719 29.785156 C 2031.550781 28.996094 2035.980469 28.820312 2040.398438 29.089844 C 2042.039062 29.183594 2043.664062 29.328125 2045.289062 29.53125 C 2045.554688 29.5625 2045.824219 29.59375 2046.089844 29.640625 L 2045.539062 29.28125 C 2030.886719 18.855469 2014.125 17.941406 1997.234375 20.796875 C 1976.890625 24.25 1959.933594 34.988281 1944.226562 47.371094 C 1940.394531 50.382812 1937.335938 50.808594 1932.921875 49.246094 C 1895.386719 35.839844 1856.761719 30.382812 1816.660156 32.578125 C 1788.207031 34.121094 1760.640625 38.898438 1734.019531 48.269531 C 1727.191406 50.679688 1722.585938 49.859375 1717.601562 45.476562 C 1708.644531 37.574219 1698.332031 31.519531 1687.195312 27.054688 C 1664.707031 18.019531 1642.21875 15.023438 1620.359375 28.539062 L 1619.160156 29.28125 C 1620.011719 29.203125 1620.878906 29.136719 1621.746094 29.089844 C 1626.164062 28.820312 1630.59375 28.996094 1635.011719 29.785156 C 1637.722656 30.558594 1640.386719 31.410156 1642.960938 32.402344 C 1643.179688 32.480469 1643.386719 32.558594 1643.605469 32.671875 C 1651.035156 35.605469 1657.578125 39.847656 1662.136719 47.023438 C 1691.28125 69.304688 1691.960938 136.726562 1664.125 160.304688 C 1663.933594 160.492188 1663.746094 160.636719 1663.554688 160.792969 C 1663.113281 161.171875 1662.65625 161.519531 1662.183594 161.863281 C 1661.929688 162.226562 1661.679688 162.589844 1661.410156 162.9375 C 1661.394531 162.953125 1661.378906 162.984375 1661.363281 163 C 1649.582031 178.675781 1627.488281 184.179688 1608.5 176.296875 C 1608.46875 176.277344 1608.421875 176.261719 1608.375 176.246094 C 1607.601562 175.917969 1606.8125 175.570312 1606.039062 175.191406 C 1604.289062 174.339844 1602.570312 173.425781 1600.867188 172.464844 C 1600.015625 172.019531 1599.179688 171.546875 1598.34375 171.074219 C 1597.726562 170.726562 1597.113281 170.382812 1596.480469 170.050781 C 1596.402344 170.253906 1596.339844 170.460938 1596.261719 170.664062 C 1596.246094 170.710938 1596.230469 170.757812 1596.214844 170.808594 L 1596.199219 170.808594 C 1596.089844 171.089844 1595.992188 171.375 1595.898438 171.65625 C 1595.867188 171.769531 1595.820312 171.863281 1595.789062 171.972656 C 1589.652344 189.039062 1585.316406 206.417969 1586.296875 224.710938 C 1617.757812 237.328125 1650.480469 234.835938 1683.128906 231.871094 C 1702.621094 230.089844 1722.019531 230.230469 1741.464844 231.933594 C 1789.5625 236.160156 1837.492188 241.445312 1886.035156 235.152344 C 1926.894531 229.851562 1968.011719 229.207031 2009.328125 233.730469 C 2032.636719 236.289062 2056.65625 234.929688 2078.40625 223.589844 C 2078.816406 205.597656 2076.167969 188.1875 2067.554688 171.941406 "
       id="path4199" />
    <path
       style=" stroke:none;fill-rule:nonzero;fill:rgb(1.960754%,1.960754%,1.176453%);fill-opacity:1;"
       d="M 1797.730469 192.515625 C 1795.902344 199.4375 1792.371094 204.511719 1789.839844 203.84375 C 1787.308594 203.175781 1786.738281 197.019531 1788.566406 190.09375 C 1790.394531 183.171875 1793.925781 178.097656 1796.457031 178.765625 C 1798.988281 179.433594 1799.558594 185.589844 1797.730469 192.515625 "
       id="path4201" />
    <path
       style=" stroke:none;fill-rule:nonzero;fill:rgb(1.960754%,1.960754%,1.176453%);fill-opacity:1;"
       d="M 1867.421875 192.515625 C 1869.246094 199.4375 1872.78125 204.511719 1875.3125 203.84375 C 1877.84375 203.175781 1878.414062 197.019531 1876.585938 190.09375 C 1874.757812 183.171875 1871.222656 178.097656 1868.691406 178.765625 C 1866.164062 179.433594 1865.59375 185.589844 1867.421875 192.515625 "
       id="path4203" />
  </g>
</svg>
